<?xml version="1.0" standalone="no"?>
<!DOCTYPE svg PUBLIC "-//W3C//DTD SVG 20010904//EN"
 "http://www.w3.org/TR/2001/REC-SVG-20010904/DTD/svg10.dtd">
<svg version="1.0" xmlns="http://www.w3.org/2000/svg"
 width="512.000000pt" height="512.000000pt" viewBox="0 0 512.000000 512.000000"
 preserveAspectRatio="xMidYMid meet">

<g transform="translate(0.000000,512.000000) scale(0.100000,-0.100000)"
fill="#000000" stroke="none">
<path d="M858 5105 c-432 -73 -773 -416 -843 -850 -22 -135 -22 -3255 0 -3390
71 -438 412 -779 850 -850 135 -22 3255 -22 3390 0 438 71 779 412 850 850 22
135 22 3255 0 3390 -71 438 -412 779 -850 850 -125 21 -3275 20 -3397 0z
m1882 -1010 l0 -275 570 0 570 0 0 -110 0 -110 -570 0 -570 0 0 -1315 0 -1315
260 0 260 0 0 -110 0 -110 -700 0 -700 0 0 110 0 110 260 0 260 0 0 1315 0
1315 -566 0 -566 0 5 -22 c2 -13 135 -328 296 -701 160 -373 291 -691 291
-705 0 -15 -11 -50 -24 -77 -93 -201 -500 -309 -826 -219 -76 20 -167 61 -215
96 -76 55 -135 145 -135 206 0 8 135 329 300 714 l300 700 0 114 0 114 570 0
570 0 0 275 0 275 180 0 180 0 0 -275z m1444 -1212 c163 -380 296 -697 296
-705 0 -62 -59 -151 -138 -208 -54 -39 -172 -87 -266 -107 -116 -26 -318 -21
-439 10 -111 29 -197 72 -264 131 -47 42 -93 122 -93 166 -1 30 592 1421 601
1412 4 -4 140 -318 303 -699z"/>
<path d="M988 2772 l-247 -577 496 -3 c273 -1 498 -1 500 1 5 6 -489 1157
-496 1157 -3 0 -117 -260 -253 -578z"/>
<path d="M3627 2774 c-136 -317 -246 -579 -244 -581 2 -2 227 -2 500 -1 l496
3 -247 577 c-136 318 -250 578 -253 578 -3 0 -117 -259 -252 -576z"/>
</g>
</svg>
